<?xml version="1.0" encoding="utf-8"?>
<!-- Generator: Adobe Illustrator 22.0.1, SVG Export Plug-In . SVG Version: 6.00 Build 0)  -->
<svg version="1.1" id="Layer_1" xmlns="http://www.w3.org/2000/svg" xmlns:xlink="http://www.w3.org/1999/xlink" x="0px" y="0px"
	 width="250.1px" height="111.12px" viewBox="0 0 250.1 111.12" enable-background="new 0 0 250.1 111.12" xml:space="preserve">
<g>
	<path fill="#550000" d="M191.49,15.72c-1.02,4.61-1.7,9.31-2.71,13.92H83.35l-0.98,4.55l-4.58,22.93l-2.85,14.07H59.38l7.35-36.7
		l1.01-4.7l-0.21-0.15h-8.93V15.72H191.49z M86.92,32.29l-0.63,3.06L83.24,50.4l-4.22,20.78h31.34c0.71-3.6,1.43-7.2,2.15-10.79
		l-15.71-0.06c0.03-1.12,0.44-2.11,0.72-3.15l15.71-0.06c0.71-3.71,1.39-7.47,2.2-11.15h-0.3l-15.46-0.06c0.2-1,0.38-2.02,0.71-3
		h15.61c0.72-3.54,1.44-7.07,2.14-10.61H86.92z M152.17,32.29h-29.56l-0.27,1.18l-6.07,30.22l-1.53,7.49h29.51l2.19-10.79h-14.33
		l-0.24-0.14c0.32-0.98,0.24-2.15,0.65-3.07l14.57-0.06l2.26-11.15l-14.63-0.06l0.65-3.07h14.64L152.17,32.29z M156.24,32.29
		l-4.99,24.83l14.89,0.06l-0.72,3.15l-14.83,0.06l-2.15,10.71h31.97l5.09-25.19l-17.07-0.06l0.65-3.01h17.04
		c0.59-3.56,1.39-7.05,2.09-10.55H156.24z M3.09,84.48H0.05v-3.09h10.01v3.09H7.03v9.89H3.09V84.48z M20.85,91.38h-5.6v-2.13h5.1
		v-2.99h-5.1v-1.89h5.4v-2.98h-9.34v12.98h9.53V91.38z M21.58,94.36l4.19-6.81l-3.77-6.17h4.61l1.87,3.67l1.92-3.67h4.39l-3.8,6.17
		l4.08,6.68l4.88-12.85h4.47l5,12.98h-4.31l-0.92-2.63h-4.16l-0.97,2.63h-3.92h-0.12h-4.58l-2.19-4.16l-2.17,4.16H21.58z
		 M43.21,88.75l-1.05-3.46l-1.14,3.46H43.21z M56.02,86.15c-1.13-0.32-1.82-0.54-1.82-1.06c0-0.57,0.58-0.82,1.88-0.82
		c0.94,0,1.84,0.19,2.6,0.54l0.42,0.19l0.27-3.26l-0.24-0.08c-0.89-0.3-2.09-0.48-3.28-0.48c-3.56,0-5.69,1.53-5.69,4.11
		c0,2.86,2.23,3.53,3.86,4.03c1.22,0.37,1.96,0.63,1.96,1.31c0,0.41-0.19,0.87-1.7,0.87c-1.57,0-2.7-0.48-3.23-0.77l-0.43-0.23
		l-0.36,3.47l0.25,0.08c1.04,0.34,2.49,0.55,3.77,0.55c3.7,0,5.75-1.56,5.75-4.39C60.03,87.27,57.71,86.62,56.02,86.15z
		 M70.84,94.36H66.8l4.93-12.98h4.48l5,12.98h-4.31l-0.92-2.63h-4.16L70.84,94.36z M74.99,88.75l-1.05-3.46l-1.14,3.46H74.99z
		 M93.27,91.61l2.48,2.76h-4.41l-0.1-0.14c-0.19-0.26-0.35-0.48-0.52-0.68c-0.93,0.69-2.17,1.03-3.79,1.03
		c-2.4,0-4.99-1.28-4.99-4.07c0-1.54,0.67-2.61,2.16-3.42c-0.83-0.77-1.22-1.62-1.22-2.63c0-2.42,2.38-3.28,4.42-3.28
		c2.92,0,4.6,1.23,4.6,3.36c0,1.58-1.22,2.45-2.42,3.16c0.52,0.46,1.03,0.94,1.53,1.42c0.31-0.46,0.49-1.05,0.52-1.75l0.02-0.31
		h3.51l-0.02,0.34C94.96,88.96,94.34,90.45,93.27,91.61z M88.38,84.61c0-0.57-0.54-0.77-1.05-0.77c-0.57,0-0.98,0.32-0.98,0.77
		c0,0.47,0.43,0.89,0.88,1.26C87.75,85.56,88.38,85.16,88.38,84.61z M85.59,90.43c0,0.86,0.84,1.37,1.65,1.37
		c0.52,0,0.92-0.11,1.38-0.4c-0.79-0.85-1.58-1.61-2.29-2.26C85.79,89.48,85.59,89.84,85.59,90.43z M100.38,86.62l2.45,7.74h3.49
		l2.6-7.84l-0.04,7.84h3.87V81.39h-5.54l-2.51,7.52l-2.4-7.52h-5.74v12.98h3.87L100.38,86.62z M130.4,91.38h-5.6v-2.13h5.1v-2.99
		h-5.1v-1.89h5.4v-2.98h-9.34v12.98h9.54V91.38z M136,86.94l3.8,7.43h4.61V81.39h-3.66l0.05,7.36l-3.66-7.36h-4.71v12.98h3.68
		L136,86.94z M153.66,94.58c1.34,0,2.86-0.07,4.85-0.58l0.25-0.06v-7.43H153v2.99h1.92v1.88c-0.23,0.07-0.52,0.11-0.84,0.11
		c-2.3,0-3.79-1.4-3.79-3.56c0-3.19,2.83-3.66,4.53-3.66c0.75,0,1.89,0.2,2.83,0.75l0.44,0.26l0.34-3.44l-0.24-0.09
		c-1.42-0.54-3.45-0.57-3.84-0.57c-5.23,0-8.11,2.4-8.11,6.75C146.25,92.83,150.24,94.58,153.66,94.58z M165.16,81.39h-3.94v12.98
		h3.94V81.39z M175.02,94.36h4.61V81.39h-3.66l0.05,7.36l-3.66-7.36h-4.71v12.98h3.68l-0.09-7.43L175.02,94.36z M185.79,89.24h5.1
		v-2.99h-5.1v-1.89h5.4v-2.98h-9.34v12.98h9.53v-2.99h-5.6V89.24z M202.79,91.38h-5.6v-2.13h5.1v-2.99h-5.1v-1.89h5.4v-2.98h-9.34
		v12.98h9.53V91.38z M214.5,90.56l1.36,3.81h-4.13l-0.78-2.45c-0.67-2.12-1.03-2.42-2-2.42h-0.36v4.87h-3.94V81.39h6.19
		c2.65,0,4.3,1.32,4.3,3.43c0,1.56-0.65,2.65-1.89,3.19c0.44,0.37,0.65,0.95,0.91,1.66C214.26,89.94,214.37,90.23,214.5,90.56z
		 M208.59,86.51h0.54c1.38,0,2.07-0.17,2.07-1.1c0-0.51-0.25-1.03-2.07-1.03h-0.54V86.51z M217.3,94.36h3.94V81.39h-3.94V94.36z
		 M232.08,88.74l-3.66-7.36h-4.71v12.98h3.68l-0.09-7.43l3.8,7.43h4.61V81.39h-3.66L232.08,88.74z M244.29,86.51v2.99h1.92v1.88
		c-0.23,0.07-0.53,0.11-0.84,0.11c-2.3,0-3.79-1.4-3.79-3.56c0-3.19,2.83-3.66,4.53-3.66c0.75,0,1.89,0.2,2.83,0.75l0.44,0.26
		l0.34-3.44l-0.23-0.09c-1.38-0.53-3.29-0.57-3.84-0.57c-5.23,0-8.11,2.4-8.11,6.75c0,4.91,3.99,6.65,7.41,6.65
		c1.34,0,2.86-0.07,4.85-0.58l0.25-0.06v-7.43H244.29z M26.94,105.76h5.1v-2.98h-5.1v-1.89h5.4v-2.98H23v12.98h9.53v-2.98h-5.6
		V105.76z M46.48,97.91h-4.39l-1.92,3.67l-1.87-3.67h-4.61l3.77,6.17l-4.19,6.81h4.51l2.17-4.16l2.18,4.16h4.7l-4.15-6.8
		L46.48,97.91z M57.78,102.27c0,2.69-1.95,4.3-5.22,4.3h-0.95v4.31h-3.94V97.91h4.25C55.87,97.91,57.78,99.33,57.78,102.27z
		 M52.14,100.89h-0.52v2.7h0.52c1.53,0,1.7-0.78,1.7-1.37C53.84,101.65,53.67,100.89,52.14,100.89z M63.12,105.76h5.1v-2.98h-5.1
		v-1.89h5.4v-2.98h-9.34v12.98h9.53v-2.98h-5.6V105.76z M80.43,107.08l1.36,3.81h-4.13l-0.78-2.45c-0.67-2.12-1.03-2.42-2-2.42
		h-0.36v4.87h-3.94V97.91h6.19c2.65,0,4.3,1.31,4.3,3.43c0,1.56-0.65,2.65-1.89,3.19c0.44,0.37,0.65,0.95,0.91,1.66
		C80.19,106.46,80.29,106.75,80.43,107.08z M74.52,103.02h0.54c1.38,0,2.07-0.17,2.07-1.1c0-0.51-0.25-1.03-2.07-1.03h-0.54V103.02z
		 M83.22,110.88h3.94V97.91h-3.94V110.88z M97.63,105.42l-2.4-7.52h-5.74v12.98h3.87l-0.06-7.74l2.45,7.74h3.49l2.6-7.84l-0.04,7.84
		h3.87V97.91h-5.54L97.63,105.42z M111.7,105.76h5.1v-2.98h-5.1v-1.89h5.4v-2.98h-9.34v12.98h9.53v-2.98h-5.6V105.76z
		 M127.69,105.26l-3.66-7.36h-4.71v12.98h3.68l-0.09-7.43l3.8,7.43h4.61V97.91h-3.66L127.69,105.26z M132.69,101h3.04v9.88h3.94V101
		h3.03v-3.09h-10.01V101z M155.56,102.67c-1.13-0.32-1.82-0.54-1.82-1.06c0-0.57,0.58-0.82,1.88-0.82c0.94,0,1.84,0.18,2.6,0.53
		l0.42,0.19l0.27-3.26l-0.24-0.08c-0.89-0.3-2.08-0.48-3.28-0.48c-3.57,0-5.69,1.53-5.69,4.11c0,2.86,2.23,3.53,3.86,4.02
		c1.22,0.37,1.96,0.63,1.96,1.31c0,0.41-0.19,0.87-1.7,0.87c-1.57,0-2.7-0.49-3.23-0.77l-0.43-0.23l-0.36,3.47l0.25,0.08
		c1.04,0.33,2.49,0.54,3.77,0.54c3.71,0,5.75-1.56,5.75-4.39C159.57,103.79,157.25,103.14,155.56,102.67z M170.57,97.91h-10.01V101
		h3.04v9.88h3.94V101h3.04V97.91z M178.85,97.91l5,12.98h-4.31l-0.92-2.63h-4.16l-0.97,2.63h-4.04l4.93-12.98H178.85z M176.58,101.8
		l-1.14,3.46h2.19L176.58,101.8z M182.84,101h3.04v9.88h3.94V101h3.04v-3.09h-10.01V101z M194.35,110.88h3.94V97.91h-3.94V110.88z
		 M213.26,104.39c0,4.19-2.43,6.7-6.51,6.7c-4.07,0-6.51-2.51-6.51-6.7c0-4.26,2.37-6.7,6.51-6.7
		C210.88,97.69,213.26,100.13,213.26,104.39z M209.21,104.39c0-1.09-0.24-3.61-2.46-3.61s-2.46,2.52-2.46,3.61
		c0,0.85,0.18,3.61,2.46,3.61C209.03,108,209.21,105.24,209.21,104.39z M223.49,105.26l-3.66-7.35h-4.71v12.98h3.68l-0.09-7.43
		l3.8,7.43h4.61V97.91h-3.66L223.49,105.26z"/>
	<path d="M129.35,15.85h17.24L133.3,26.1l6,16.52l-15.38-10.28l-14.77,10l5.82-16.24l-14.95-10.24h18.34l5.56-15.83L129.35,15.85z"
		/>
	<path fill="#B3B3B3" d="M119.73,18.35l4.11-12v16.85L119.73,18.35z M123.85,3.88l-4.81,13.43h-14.28l11.56,8.23l-4.82,13.98
		l12.34-8.73l12.74,8.73l-5.06-13.98l10.95-8.23h-13.93L123.85,3.88z M127.72,18.35h12.1l-15.97,4.86L127.72,18.35z M117.45,25.25
		l-10.11-6.89l16.5,4.86L117.45,25.25z M130.43,25.25l4.47,12.09l-11.06-14.13L130.43,25.25z M123.85,29.7l-10.56,7.63l10.56-14.08
		V29.7z"/>
</g>
</svg>
